<?xml version="1.0" encoding="UTF-8" standalone="no"?>
<svg xmlns="http://www.w3.org/2000/svg" viewBox="0 0 24 24"><g><path d="M12,.5A11.5,11.5,0,0,0,.5,12a11.82,11.82,0,0,0,9,11.5v-3h-1c-2.62,0-3.54-4-5-4,2.79,0,3.33,2,5,2a.89.89,0,0,0,1-1v-.35c-2.91-.82-5-3-5-5.65A5.26,5.26,0,0,1,6.07,7.84,3.16,3.16,0,0,1,6.5,4.5,5.26,5.26,0,0,1,8.88,6a9.14,9.14,0,0,1,6.24,0A5.26,5.26,0,0,1,17.5,4.5a3.16,3.16,0,0,1,.43,3.34A5.26,5.26,0,0,1,19.5,11.5c0,2.74-2.29,5-5.42,5.76a4.68,4.68,0,0,1,.42,2.24v4a11.82,11.82,0,0,0,9-11.5A11.5,11.5,0,0,0,12,.5Z" style="fill:none;stroke:#303c42;stroke-linecap:round;stroke-linejoin:round"/></g>
</svg>
