<?xml version="1.0" encoding="UTF-8"?><svg xmlns="http://www.w3.org/2000/svg" viewBox="0 0 24 24"><path d="M3 6.002c-1.654 0-3-1.346-3-3s1.346-3 3-3 3 1.346 3 3-1.346 3-3 3zm0-5c-1.103 0-2 .897-2 2s.897 2 2 2 2-.897 2-2-.897-2-2-2z"/><path d="M5.5 24.002h-5a.5.5 0 0 1-.5-.5v-15a.5.5 0 0 1 .5-.5h5a.5.5 0 0 1 .5.5v15a.5.5 0 0 1-.5.5zm-4.5-1h4v-14H1v14z"/><path d="M23.5 24.002h-5a.5.5 0 0 1-.5-.5v-9c0-1.135-.473-1.987-1.299-2.336-.853-.362-1.894-.14-2.701.556v10.78a.5.5 0 0 1-.5.5h-5a.5.5 0 0 1-.5-.5v-15a.5.5 0 0 1 .5-.5h5a.5.5 0 0 1 .484.375c1.604-1.154 4.276-1.796 6.413-1.064 1.613.553 3.546 2.073 3.603 6.183v10.007a.5.5 0 0 1-.5.499zm-4.5-1h4v-9.5c-.038-2.785-1.051-4.601-2.927-5.243-2.33-.798-5.266.407-6.183 1.555a.501.501 0 0 1-.89-.312v-.5H9v14h4v-10.5a.5.5 0 0 1 .151-.358c1.118-1.086 2.667-1.436 3.939-.899 1.214.514 1.91 1.701 1.909 3.257v8.5z"/></svg>