<?xml version="1.0" standalone="no"?>
<!DOCTYPE svg PUBLIC "-//W3C//DTD SVG 20010904//EN"
 "http://www.w3.org/TR/2001/REC-SVG-20010904/DTD/svg10.dtd">
<svg version="1.0" xmlns="http://www.w3.org/2000/svg"
 width="1925.000000pt" height="363.000000pt" viewBox="0 0 1925.000000 363.000000"
 preserveAspectRatio="xMidYMid meet">

<g transform="translate(0.000000,363.000000) scale(0.100000,-0.100000)"
fill="#000000" stroke="none">
<path d="M4425 3468 c-8 -36 -135 -818 -135 -834 0 -9 10 -14 29 -14 22 0 30
6 34 23 3 12 27 168 53 347 26 179 50 328 53 332 3 4 67 -142 141 -323 74
-182 141 -333 148 -336 8 -3 19 1 26 8 11 12 228 469 299 629 l20 45 51 -360
51 -360 33 -3 c17 -2 32 1 32 5 0 12 -119 803 -126 836 -14 68 -36 34 -203
-323 -91 -193 -168 -347 -172 -343 -4 4 -71 162 -150 351 -111 263 -148 342
-161 342 -10 0 -20 -10 -23 -22z"/>
<path d="M6520 3055 l0 -435 30 0 30 0 2 362 3 361 318 -366 c175 -202 325
-367 333 -367 12 0 14 63 14 435 l0 435 -30 0 -30 0 -2 -365 -3 -365 -320 370
c-176 203 -326 370 -332 370 -10 0 -13 -94 -13 -435z"/>
<path d="M8645 3478 c-2 -7 -35 -202 -73 -433 l-68 -420 29 -3 c16 -2 30 -2
32 0 2 2 28 162 57 356 32 213 56 348 61 340 5 -7 68 -157 141 -333 108 -263
136 -320 151 -320 16 0 50 66 175 333 109 234 157 327 162 315 4 -10 28 -170
54 -355 l47 -338 34 0 c32 0 34 2 29 28 -6 28 -126 827 -126 837 0 3 -8 5 -19
5 -14 0 -53 -74 -182 -350 -90 -192 -166 -350 -169 -350 -3 0 -70 157 -150
348 -104 246 -151 348 -163 350 -9 2 -19 -2 -22 -10z"/>
<path d="M11316 3078 c-37 -227 -70 -423 -73 -435 -5 -20 -1 -23 29 -23 l33 0
55 361 c34 230 57 355 62 343 4 -11 66 -160 138 -333 71 -173 133 -318 139
-324 5 -5 16 -7 23 -4 7 3 83 156 168 340 85 184 156 332 157 329 3 -8 103
-695 103 -705 0 -4 16 -7 36 -7 29 0 34 3 30 18 -3 9 -32 202 -66 427 -34 226
-65 414 -70 419 -5 5 -15 6 -22 3 -7 -2 -85 -159 -172 -346 -88 -188 -162
-344 -166 -346 -4 -2 -72 152 -152 343 -116 276 -150 348 -165 350 -19 3 -24
-24 -87 -410z"/>
<path d="M15417 3093 c-92 -219 -173 -415 -182 -435 l-15 -38 34 0 33 0 63
150 63 150 186 0 187 0 61 -147 61 -148 36 -3 c20 -2 36 -1 36 1 0 2 -79 193
-176 423 -97 230 -178 425 -181 432 -3 6 -13 12 -23 12 -13 0 -54 -89 -183
-397z m269 69 c41 -97 74 -180 74 -184 0 -5 -72 -8 -160 -8 -88 0 -160 4 -160
9 0 4 34 90 75 190 41 100 75 187 75 194 1 20 19 -17 96 -201z"/>
<path d="M160 3450 l0 -30 145 0 145 0 0 -400 0 -400 30 0 30 0 0 400 0 400
145 0 145 0 0 30 0 30 -320 0 -320 0 0 -30z"/>
<path d="M1310 3050 l0 -430 30 0 30 0 0 215 0 215 290 0 290 0 0 -215 0 -215
30 0 30 0 0 430 0 430 -30 0 -30 0 -2 -187 -3 -188 -287 -3 -288 -2 0 190 0
190 -30 0 -30 0 0 -430z"/>
<path d="M2650 3050 l0 -430 205 0 205 0 0 30 0 30 -175 0 -175 0 0 190 0 189
153 3 152 3 0 25 0 25 -152 3 -153 3 0 149 0 150 170 0 170 0 0 30 0 30 -200
0 -200 0 0 -430z"/>
<path d="M5820 3050 l0 -430 30 0 30 0 0 430 0 430 -30 0 -30 0 0 -430z"/>
<path d="M7890 3050 l0 -430 30 0 30 0 0 430 0 430 -30 0 -30 0 0 -430z"/>
<path d="M10020 3223 c0 -372 16 -449 110 -537 59 -55 124 -76 234 -76 145 1
234 49 287 155 39 80 49 171 49 473 l0 242 -35 0 -35 0 0 -293 c0 -231 -3
-304 -15 -344 -36 -121 -118 -177 -260 -177 -121 1 -191 40 -236 131 -23 47
-24 57 -29 363 l-5 315 -32 3 -33 3 0 -258z"/>
<path d="M13390 3476 c0 -2 83 -197 183 -433 143 -333 188 -429 203 -431 16
-2 46 61 202 425 100 235 182 432 182 436 0 5 -14 7 -32 5 l-32 -3 -157 -373
c-86 -205 -159 -375 -162 -378 -2 -3 -7 5 -10 18 -4 13 -74 183 -156 378
l-150 355 -36 3 c-19 2 -35 1 -35 -2z"/>
<path d="M14660 3050 l0 -430 30 0 30 0 0 430 0 430 -30 0 -30 0 0 -430z"/>
<path d="M16480 3052 l0 -429 123 -7 c205 -11 305 21 354 113 28 54 32 155 7
204 -23 45 -82 105 -127 128 l-38 20 45 50 c54 60 70 103 64 178 -5 72 -32
111 -96 143 -41 20 -64 23 -189 26 l-143 3 0 -429z m287 358 c24 -10 52 -33
63 -52 41 -65 7 -171 -74 -233 -35 -26 -38 -27 -126 -20 l-90 7 0 159 0 159
93 0 c69 0 103 -5 134 -20z m-27 -376 c106 -31 170 -97 177 -182 5 -60 -19
-106 -76 -147 -42 -30 -45 -30 -169 -30 l-127 0 -3 188 -2 187 73 0 c40 0 97
-7 127 -16z"/>
<path d="M17560 3050 l0 -430 225 0 225 0 0 30 0 30 -195 0 -195 0 0 400 0
400 -30 0 -30 0 0 -430z"/>
<path d="M18520 3050 l0 -430 205 0 205 0 0 30 0 30 -175 0 -175 0 0 190 0
190 150 0 150 0 0 30 0 30 -150 0 -150 0 0 150 0 150 168 2 167 3 3 28 3 27
-200 0 -201 0 0 -430z"/>
<path d="M6030 2108 c-229 -18 -392 -85 -535 -220 -205 -191 -305 -445 -305
-775 0 -262 56 -474 170 -644 68 -101 193 -217 286 -265 167 -88 272 -108 514
-101 190 5 283 27 425 100 117 60 262 208 327 332 81 158 116 303 125 520 24
604 -300 1015 -832 1053 -49 4 -128 4 -175 0z m243 -214 c115 -26 192 -69 277
-154 84 -84 130 -156 166 -258 119 -344 62 -776 -131 -990 -63 -69 -143 -127
-220 -159 -146 -61 -390 -56 -521 10 -120 61 -230 170 -289 288 -121 237 -126
674 -12 912 62 130 162 238 280 303 108 59 307 80 450 48z"/>
<path d="M531 2086 c-59 -20 -96 -57 -115 -120 -15 -46 -16 -139 -14 -918 3
-830 4 -867 22 -887 33 -36 81 -46 132 -26 24 9 49 25 54 35 6 12 10 317 10
836 0 708 2 816 14 804 8 -8 58 -112 112 -230 410 -908 599 -1320 620 -1348
33 -42 73 -62 126 -62 49 0 98 26 124 64 14 23 149 316 590 1288 l139 308 5
-818 c4 -615 8 -822 17 -838 12 -22 70 -54 95 -54 7 0 32 9 55 19 35 16 44 26
53 60 7 28 10 300 8 893 l-3 853 -22 41 c-59 110 -192 147 -292 81 -46 -31
-79 -93 -274 -527 -360 -800 -481 -1066 -492 -1078 -9 -10 -77 133 -320 680
-169 381 -326 729 -349 773 -45 88 -85 139 -126 160 -42 22 -119 26 -169 11z"/>
<path d="M9697 2082 c-67 -45 -62 26 -64 -967 -2 -703 0 -905 10 -924 6 -13
25 -34 40 -45 28 -20 39 -21 375 -21 322 0 355 2 460 23 226 46 389 127 517
257 155 158 232 365 242 655 9 228 -23 404 -99 555 -125 248 -315 385 -628
452 -107 24 -139 26 -470 30 -337 4 -356 3 -383 -15z m704 -197 c187 -28 293
-77 406 -190 66 -66 90 -98 123 -166 77 -162 104 -349 81 -564 -33 -298 -168
-502 -394 -592 -118 -46 -177 -54 -464 -60 l-273 -6 0 797 0 796 213 0 c133 0
247 -5 308 -15z"/>
<path d="M13971 2083 c-18 -9 -42 -31 -52 -47 -18 -30 -19 -70 -19 -925 0
-879 0 -894 20 -926 42 -67 27 -66 650 -63 l562 3 24 28 c35 41 34 109 -2 142
l-27 25 -493 0 -494 0 0 360 0 359 449 3 c437 3 450 4 477 24 37 27 47 67 29
111 -26 62 -33 63 -520 63 l-435 0 0 325 0 325 458 0 c415 0 460 2 492 18 65
32 79 101 31 154 l-29 33 -544 2 c-491 3 -546 1 -577 -14z"/>
<path d="M17875 2085 c-55 -20 -72 -45 -80 -118 -3 -34 -5 -442 -3 -907 3
-817 4 -846 22 -877 38 -63 41 -63 612 -63 577 0 572 -1 600 66 17 41 13 70
-15 105 l-19 24 -474 5 -473 5 -5 850 c-6 953 -1 893 -77 914 -46 13 -39 13
-88 -4z"/>
</g>
</svg>
