<?xml version="1.0" standalone="no"?>
<!DOCTYPE svg PUBLIC "-//W3C//DTD SVG 20010904//EN"
 "http://www.w3.org/TR/2001/REC-SVG-20010904/DTD/svg10.dtd">
<svg version="1.0" xmlns="http://www.w3.org/2000/svg"
 width="512.000000pt" height="512.000000pt" viewBox="0 0 512.000000 512.000000"
 preserveAspectRatio="xMidYMid meet">
<metadata>
Created by potrace 1.14, written by Peter Selinger 2001-2017
</metadata>
<g transform="translate(0.000000,512.000000) scale(0.100000,-0.100000)"
fill="#000000" stroke="none">
<path d="M2327 4413 c-4 -3 -7 -21 -7 -40 l0 -33 -125 0 -125 0 0 -40 0 -40
-40 0 -40 0 0 -40 0 -40 -40 0 c-40 0 -40 0 -40 -39 0 -39 -1 -40 -37 -43 -36
-3 -38 -5 -41 -40 -3 -37 -4 -38 -43 -38 -39 0 -39 0 -39 -40 l0 -40 -40 0
c-40 0 -40 0 -40 -39 0 -39 -1 -40 -37 -43 l-38 -3 -3 -117 -3 -117 -37 -3
-37 -3 -2 -105 c-4 -146 -5 -150 -51 -150 l-37 0 3 -279 3 -280 37 -3 37 -3 3
-562 2 -563 40 0 40 0 0 -244 0 -245 38 -3 37 -3 3 -83 3 -82 39 0 39 0 3 -77
3 -78 38 -3 c36 -3 37 -4 37 -43 0 -39 0 -39 40 -39 l40 0 0 -120 0 -120 -39
0 c-40 0 -40 0 -43 -42 -3 -42 -4 -43 -40 -46 -35 -3 -37 -5 -40 -40 -3 -35
-5 -37 -40 -40 -37 -3 -38 -4 -38 -43 0 -39 0 -39 -40 -39 l-39 0 -3 -77 -3
-78 -37 -3 c-35 -3 -37 -5 -40 -40 l-3 -37 -77 -3 c-70 -3 -78 -5 -78 -22 0
-19 9 -20 325 -20 276 0 325 2 325 14 0 10 13 16 38 18 l37 3 3 198 2 197 35
0 c32 0 34 -2 37 -37 l3 -38 55 -2 c30 -1 65 -2 77 -2 18 -1 22 -8 25 -38 l3
-38 290 0 290 0 -3 37 -4 38 119 1 c65 1 129 5 143 9 14 4 19 8 13 9 -8 1 -13
14 -13 31 0 28 3 30 35 30 21 0 36 5 36 13 1 6 2 26 3 42 1 27 4 30 36 30 43
0 50 9 43 52 -6 33 -5 33 35 33 42 0 52 10 52 55 0 20 6 24 38 27 35 3 37 5
40 40 3 35 5 37 40 40 35 3 37 5 40 41 l3 37 70 0 69 0 0 -35 c0 -29 4 -36 25
-41 14 -3 32 -4 40 0 12 4 15 -6 15 -59 0 -51 -3 -65 -15 -65 -8 0 -15 -4 -15
-10 0 -5 7 -7 15 -4 13 5 15 -8 15 -85 l0 -91 -40 0 -40 0 0 -40 c0 -23 -5
-40 -11 -40 -6 0 -9 7 -5 15 3 8 1 15 -4 15 -6 0 -10 -7 -10 -16 0 -11 -6 -13
-19 -9 -24 7 -36 -10 -36 -50 0 -33 2 -32 -107 -34 l-48 -1 0 -40 0 -40 -45 0
-45 0 6 -40 7 -40 -81 0 c-87 0 -95 -5 -86 -56 5 -26 4 -27 -34 -20 -33 5 -41
3 -44 -12 -12 -43 -37 -42 818 -42 807 0 814 0 814 20 0 18 -7 20 -85 20 l-85
0 0 40 0 39 -77 3 -78 3 -3 38 -3 37 -80 0 -79 0 0 40 0 40 -40 0 -40 0 0 80
0 80 -40 0 -40 0 0 85 0 85 -40 0 -40 0 0 40 0 40 -85 0 -85 0 0 40 0 40 -40
0 -40 0 2 322 3 323 37 3 37 3 3 122 3 122 43 3 c42 3 42 3 42 43 0 39 0 39
40 39 l40 0 0 40 0 40 40 0 40 0 0 120 0 120 40 0 40 0 0 325 0 325 -80 0 -80
0 0 119 0 120 38 3 37 3 3 157 3 157 -38 3 -38 3 -5 205 -5 205 -37 3 -37 3
-3 77 -3 77 -42 3 c-43 3 -43 3 -43 43 0 39 0 39 -39 39 -39 0 -40 1 -43 38
-3 35 -5 37 -40 40 -35 3 -37 5 -40 40 -3 35 -5 37 -40 40 -37 3 -38 4 -38 43
l0 39 -119 0 -120 0 -3 38 -3 37 -77 3 -77 3 -3 37 -3 37 -125 5 -125 5 0 35
0 35 -316 3 c-173 1 -318 -1 -322 -5z m883 -518 l5 -40 77 -3 77 -3 3 -37 c3
-35 5 -37 40 -40 35 -3 37 -5 40 -40 3 -36 4 -37 47 -40 l44 -3 -8 -362 c-5
-248 -10 -364 -18 -369 -6 -4 11 -8 37 -10 l48 -3 2 -240 2 -240 42 -3 c42 -3
42 -3 42 -43 0 -39 0 -39 40 -39 40 0 40 0 40 -39 0 -39 1 -40 38 -43 l37 -3
3 -186 2 -186 -29 -1 c-27 -1 -30 3 -33 36 -3 35 -5 37 -40 40 -37 3 -38 4
-38 43 l0 39 -44 0 c-49 0 -64 -13 -60 -52 3 -25 0 -28 -29 -28 -18 0 -37 -4
-43 -8 -7 -4 -11 -77 -12 -204 -2 -213 -2 -213 53 -213 l30 0 0 -230 0 -230
-40 -5 c-33 -4 -40 -9 -38 -25 7 -53 -2 -60 -78 -62 -39 -1 -73 -3 -75 -6 -3
-2 -5 -20 -6 -40 l-1 -36 -121 -3 -121 -3 -1 -25 c-1 -46 -4 -49 -41 -52 -30
-2 -38 -7 -39 -23 -3 -51 -4 -54 -27 -51 -13 1 -28 5 -34 9 -16 10 -33 -23
-30 -59 l2 -29 -71 -1 c-49 0 -78 -6 -95 -17 -13 -10 -18 -17 -11 -17 6 0 12
-11 12 -25 l0 -25 -354 0 -355 0 -3 43 c-2 33 -7 42 -20 41 -10 -1 -18 4 -18
12 0 8 -4 14 -10 14 -5 0 -7 -7 -4 -15 4 -10 0 -15 -11 -15 -15 0 -17 6 -12
35 3 19 2 35 -4 35 -5 0 -9 10 -9 23 0 13 -3 17 -8 11 -4 -7 -18 -14 -32 -15
-22 -4 -26 0 -30 36 -5 39 -6 40 -42 37 l-38 -4 0 84 0 84 -40 -3 -40 -3 0 78
c0 65 -3 80 -20 95 -15 13 -20 13 -20 3 0 -8 -8 -12 -22 -9 -23 4 -23 6 -27
219 l-3 214 23 9 c18 7 19 10 7 10 -10 1 -18 8 -18 16 0 11 -11 15 -40 15 -35
0 -40 3 -40 23 0 12 -3 63 -5 112 -3 50 -3 181 1 293 l7 202 108 0 109 0 0
-30 c0 -28 -2 -30 -40 -30 l-40 0 0 -45 0 -45 83 1 c72 1 164 15 115 18 -12 1
-18 9 -18 26 0 22 4 25 34 25 36 0 46 12 46 55 0 22 5 24 68 30 37 3 73 8 80
10 9 3 12 37 12 124 l0 120 38 3 37 3 8 63 c16 112 23 107 -163 104 l-160 -3
-1 33 c-1 18 -4 44 -8 58 -6 21 -8 22 -14 8 -6 -16 -23 -18 -152 -18 l-145 0
0 310 c0 337 -3 316 53 312 9 -1 17 3 17 9 0 5 5 7 10 4 13 -8 13 18 -1 32
-17 17 -7 97 13 101 14 3 18 -7 21 -60 l3 -63 2 67 c2 62 0 67 -20 71 -17 3
-14 5 10 6 19 0 32 -4 32 -11 0 -9 4 -8 10 2 5 8 10 32 10 53 0 36 9 44 44 38
18 -4 36 23 36 55 l0 33 158 3 157 3 3 38 3 37 120 0 119 0 0 38 c0 21 3 42 6
45 4 4 185 5 403 4 l396 -2 5 -40z m562 -650 c4 -34 3 -35 -29 -35 -31 0 -33
2 -33 35 0 32 3 35 29 35 25 0 29 -4 33 -35z"/>
<path d="M1852 3730 c0 -14 2 -19 5 -12 2 6 2 18 0 25 -3 6 -5 1 -5 -13z"/>
<path d="M1878 3713 c7 -3 16 -2 19 1 4 3 -2 6 -13 5 -11 0 -14 -3 -6 -6z"/>
<path d="M1812 3568 c-1 -54 -6 -88 -13 -88 -5 0 -7 -5 -3 -11 15 -25 25 23
21 103 l-3 83 -2 -87z"/>
<path d="M3185 3641 c-3 -5 -1 -12 5 -16 5 -3 10 1 10 9 0 18 -6 21 -15 7z"/>
<path d="M3238 3593 c7 -3 16 -2 19 1 4 3 -2 6 -13 5 -11 0 -14 -3 -6 -6z"/>
<path d="M2890 3493 c0 -10 4 -14 8 -8 4 6 11 13 16 18 5 4 2 7 -7 7 -10 0
-17 -8 -17 -17z"/>
<path d="M1850 3426 c0 -2 9 -6 20 -9 11 -3 20 -1 20 4 0 5 -9 9 -20 9 -11 0
-20 -2 -20 -4z"/>
<path d="M3310 3426 c0 -2 11 -6 25 -8 14 -3 25 -1 25 3 0 5 -11 9 -25 9 -14
0 -25 -2 -25 -4z"/>
<path d="M1620 3410 c0 -6 7 -10 15 -10 8 0 15 2 15 4 0 2 -7 6 -15 10 -8 3
-15 1 -15 -4z"/>
<path d="M1730 3409 c0 -5 5 -7 10 -4 6 3 10 8 10 11 0 2 -4 4 -10 4 -5 0 -10
-5 -10 -11z"/>
<path d="M3351 3364 c0 -11 3 -14 6 -6 3 7 2 16 -1 19 -3 4 -6 -2 -5 -13z"/>
<path d="M1632 3335 c0 -16 2 -22 5 -12 2 9 2 23 0 30 -3 6 -5 -1 -5 -18z"/>
<path d="M2263 3353 c9 -2 25 -2 35 0 9 3 1 5 -18 5 -19 0 -27 -2 -17 -5z"/>
<path d="M2847 3353 c-2 -5 -1 -19 3 -33 l6 -25 6 28 c5 26 -5 47 -15 30z"/>
<path d="M2889 3344 c-12 -14 -11 -16 5 -13 11 2 21 10 24 17 5 17 -13 15 -29
-4z"/>
<path d="M1928 3343 c6 -2 18 -2 25 0 6 3 1 5 -13 5 -14 0 -19 -2 -12 -5z"/>
<path d="M2290 3325 c0 -8 5 -15 10 -15 6 0 10 7 10 15 0 8 -4 15 -10 15 -5 0
-10 -7 -10 -15z"/>
<path d="M3352 3320 c0 -14 2 -19 5 -12 2 6 2 18 0 25 -3 6 -5 1 -5 -13z"/>
<path d="M1614 3080 c0 -118 2 -167 3 -107 2 59 2 155 0 215 -1 59 -3 10 -3
-108z"/>
<path d="M2850 3256 c0 -15 -7 -26 -17 -28 -15 -3 -14 -5 5 -10 20 -5 22 -3
22 28 0 19 -2 34 -5 34 -3 0 -5 -11 -5 -24z"/>
<path d="M3504 3130 c0 -80 2 -112 3 -72 2 39 2 105 0 145 -1 39 -3 7 -3 -73z"/>
<path d="M2972 3220 c0 -14 2 -19 5 -12 2 6 2 18 0 25 -3 6 -5 1 -5 -13z"/>
<path d="M1890 3220 c0 -5 5 -10 10 -10 6 0 10 5 10 10 0 6 -4 10 -10 10 -5 0
-10 -4 -10 -10z"/>
<path d="M1983 3213 c15 -2 37 -2 50 0 12 2 0 4 -28 4 -27 0 -38 -2 -22 -4z"/>
<path d="M2078 3213 c7 -3 16 -2 19 1 4 3 -2 6 -13 5 -11 0 -14 -3 -6 -6z"/>
<path d="M1887 3183 c-3 -5 -1 -17 4 -28 7 -17 8 -17 8 8 1 27 -4 34 -12 20z"/>
<path d="M2896 3173 c-6 -14 -5 -15 5 -6 7 7 10 15 7 18 -3 3 -9 -2 -12 -12z"/>
<path d="M1861 3154 c0 -11 3 -14 6 -6 3 7 2 16 -1 19 -3 4 -6 -2 -5 -13z"/>
<path d="M3360 3135 c0 -8 5 -15 10 -15 6 0 10 7 10 15 0 8 -4 15 -10 15 -5 0
-10 -7 -10 -15z"/>
<path d="M3100 3100 c0 -5 5 -10 10 -10 6 0 10 5 10 10 0 6 -4 10 -10 10 -5 0
-10 -4 -10 -10z"/>
<path d="M3310 3080 c0 -11 4 -20 9 -20 5 0 7 9 4 20 -3 11 -7 20 -9 20 -2 0
-4 -9 -4 -20z"/>
<path d="M1808 3023 c-2 -38 0 -72 4 -77 4 -6 8 25 8 67 0 42 -2 77 -4 77 -2
0 -6 -30 -8 -67z"/>
<path d="M1810 2870 c0 -5 5 -10 11 -10 5 0 7 5 4 10 -3 6 -8 10 -11 10 -2 0
-4 -4 -4 -10z"/>
<path d="M1903 2863 c9 -2 23 -2 30 0 6 3 -1 5 -18 5 -16 0 -22 -2 -12 -5z"/>
<path d="M1997 2863 c38 -3 53 -8 56 -21 3 -12 5 -11 6 6 1 21 -3 22 -56 20
l-58 -2 52 -3z"/>
<path d="M1850 2840 c0 -5 5 -10 10 -10 6 0 10 5 10 10 0 6 -4 10 -10 10 -5 0
-10 -4 -10 -10z"/>
<path d="M2552 2792 c-7 -5 -12 -13 -11 -18 6 -36 -1 -40 -67 -41 -36 -1 -69
-5 -73 -10 -3 -4 -5 -135 -3 -290 l4 -283 37 0 38 0 7 61 c3 34 6 86 6 115 l0
54 275 0 c255 0 275 -1 276 -17 4 -63 -7 -58 132 -61 86 -2 127 1 127 8 0 6 6
8 13 4 10 -6 10 -4 0 7 -7 7 -13 23 -13 35 0 20 6 23 43 26 l42 3 0 130 0 130
-43 3 c-42 3 -43 4 -40 35 3 31 2 32 -42 37 -44 5 -45 6 -45 40 l0 35 -325 2
c-179 2 -331 -1 -338 -5z m408 -113 c0 -28 -2 -30 -32 -27 -28 2 -34 8 -36 31
-3 25 -1 27 32 27 33 0 36 -2 36 -31z"/>
<path d="M2900 2670 c0 -5 11 -10 25 -10 14 0 25 5 25 10 0 6 -11 10 -25 10
-14 0 -25 -4 -25 -10z"/>
<path d="M2080 2780 c0 -5 5 -10 10 -10 6 0 10 5 10 10 0 6 -4 10 -10 10 -5 0
-10 -4 -10 -10z"/>
<path d="M2500 2780 c0 -5 5 -10 10 -10 6 0 10 5 10 10 0 6 -4 10 -10 10 -5 0
-10 -4 -10 -10z"/>
<path d="M3300 2766 c0 -8 4 -17 9 -21 6 -3 9 4 8 15 -1 23 -17 28 -17 6z"/>
<path d="M2328 2653 c6 -2 18 -2 25 0 6 3 1 5 -13 5 -14 0 -19 -2 -12 -5z"/>
<path d="M2990 2351 c0 -5 9 -7 20 -4 11 3 20 7 20 9 0 2 -9 4 -20 4 -11 0
-20 -4 -20 -9z"/>
<path d="M3490 2329 c0 -5 5 -7 10 -4 6 3 10 8 10 11 0 2 -4 4 -10 4 -5 0 -10
-5 -10 -11z"/>
<path d="M3530 2330 c0 -5 5 -10 11 -10 5 0 7 5 4 10 -3 6 -8 10 -11 10 -2 0
-4 -4 -4 -10z"/>
<path d="M3355 2320 c-3 -5 -1 -10 4 -10 6 0 11 5 11 10 0 6 -2 10 -4 10 -3 0
-8 -4 -11 -10z"/>
<path d="M2745 2310 c4 -6 11 -8 16 -5 14 9 11 15 -7 15 -8 0 -12 -5 -9 -10z"/>
<path d="M2985 2310 c3 -5 8 -10 11 -10 2 0 4 5 4 10 0 6 -5 10 -11 10 -5 0
-7 -4 -4 -10z"/>
<path d="M3760 2275 c7 -8 20 -15 29 -15 13 1 13 3 -3 15 -26 19 -42 19 -26 0z"/>
<path d="M1705 2270 l-50 -7 53 -1 c29 -1 52 2 52 8 0 6 -1 9 -2 8 -2 0 -25
-4 -53 -8z"/>
<path d="M1775 2260 c3 -5 10 -10 16 -10 5 0 9 5 9 10 0 6 -7 10 -16 10 -8 0
-12 -4 -9 -10z"/>
<path d="M3551 2254 c0 -11 3 -14 6 -6 3 7 2 16 -1 19 -3 4 -6 -2 -5 -13z"/>
<path d="M2578 2163 c7 -3 16 -2 19 1 4 3 -2 6 -13 5 -11 0 -14 -3 -6 -6z"/>
<path d="M3545 2150 c-3 -5 -1 -10 4 -10 6 0 11 5 11 10 0 6 -2 10 -4 10 -3 0
-8 -4 -11 -10z"/>
<path d="M3474 2035 c0 -60 1 -84 3 -52 2 32 2 81 0 110 -2 29 -3 3 -3 -58z"/>
<path d="M3490 2130 c0 -5 6 -10 14 -10 8 0 18 5 21 10 3 6 -3 10 -14 10 -12
0 -21 -4 -21 -10z"/>
<path d="M1610 2088 c0 -5 30 -7 68 -7 69 2 62 6 -20 11 -27 2 -48 0 -48 -4z"/>
<path d="M2564 2045 c-3 -14 -4 -32 0 -40 5 -13 -13 -15 -119 -15 l-125 0 0
-40 0 -40 -165 0 -165 0 0 40 0 40 -40 0 c-37 0 -40 -2 -40 -29 0 -15 -3 -49
-6 -75 -6 -42 -9 -46 -33 -46 -37 0 -51 -17 -51 -62 0 -40 8 -44 65 -38 22 2
66 30 47 30 -6 0 -12 11 -12 25 0 24 2 25 69 25 l69 0 7 -75 7 -75 44 0 c23 0
46 -5 49 -11 4 -6 13 -8 21 -5 26 10 44 -5 44 -39 0 -29 -3 -32 -24 -28 -28 6
-74 -21 -57 -32 6 -3 11 -15 11 -26 0 -21 -1 -21 -160 -19 -47 0 -90 -3 -96
-7 -6 -5 -9 -26 -6 -48 l4 -40 491 0 491 0 7 34 c13 62 16 61 -201 61 l-197 0
2 25 c2 14 -1 25 -6 25 -6 0 -7 5 -3 11 4 7 33 9 81 7 40 -3 76 -1 78 3 3 4 6
20 7 36 1 15 6 34 11 41 7 8 4 12 -9 14 -11 0 -23 2 -29 3 -5 2 -14 3 -19 4
-6 0 -5 6 2 13 17 17 15 33 -3 18 -8 -7 -15 -19 -15 -26 0 -8 -4 -14 -10 -14
-5 0 -10 16 -10 35 0 32 2 35 29 35 17 0 33 -4 36 -10 3 -5 12 -10 18 -9 8 0
8 2 1 5 -6 2 -9 17 -7 32 1 15 4 89 5 164 3 149 4 148 -53 148 -22 0 -30 -6
-35 -25z"/>
<path d="M3570 2019 c0 -5 5 -7 10 -4 6 3 10 8 10 11 0 2 -4 4 -10 4 -5 0 -10
-5 -10 -11z"/>
<path d="M3738 2023 c7 -3 16 -2 19 1 4 3 -2 6 -13 5 -11 0 -14 -3 -6 -6z"/>
<path d="M3306 1872 c-4 -13 -5 -26 -2 -29 10 -11 18 4 14 29 l-4 23 -8 -23z"/>
<path d="M3342 1850 c0 -14 2 -19 5 -12 2 6 2 18 0 25 -3 6 -5 1 -5 -13z"/>
<path d="M1615 1810 c3 -6 34 -10 67 -10 76 0 72 5 -10 14 -41 4 -61 2 -57 -4z"/>
<path d="M1765 1810 c3 -5 13 -10 21 -10 8 0 14 5 14 10 0 6 -9 10 -21 10 -11
0 -17 -4 -14 -10z"/>
<path d="M3262 1795 c0 -16 2 -22 5 -12 2 9 2 23 0 30 -3 6 -5 -1 -5 -18z"/>
<path d="M2040 1786 c0 -8 -6 -17 -12 -19 -8 -3 -6 -6 5 -6 11 -1 17 6 17 19
0 11 -2 20 -5 20 -3 0 -5 -6 -5 -14z"/>
<path d="M3234 1585 c0 -88 2 -123 3 -77 2 46 2 118 0 160 -1 42 -3 5 -3 -83z"/>
<path d="M1881 1714 c0 -11 3 -14 6 -6 3 7 2 16 -1 19 -3 4 -6 -2 -5 -13z"/>
<path d="M1648 1713 c7 -3 16 -2 19 1 4 3 -2 6 -13 5 -11 0 -14 -3 -6 -6z"/>
<path d="M2170 1630 c0 -5 7 -10 15 -10 8 0 15 5 15 10 0 6 -7 10 -15 10 -8 0
-15 -4 -15 -10z"/>
<path d="M2050 1580 c0 -5 5 -10 11 -10 5 0 7 5 4 10 -3 6 -8 10 -11 10 -2 0
-4 -4 -4 -10z"/>
<path d="M2942 1540 c0 -19 2 -27 5 -17 2 9 2 25 0 35 -3 9 -5 1 -5 -18z"/>
<path d="M2645 1550 c-4 -6 -16 -8 -28 -5 -17 5 -19 4 -7 -4 22 -15 47 -13 54
4 6 17 -9 21 -19 5z"/>
<path d="M2895 1530 c3 -5 8 -10 11 -10 2 0 4 5 4 10 0 6 -5 10 -11 10 -5 0
-7 -4 -4 -10z"/>
<path d="M1858 1443 c7 -3 16 -2 19 1 4 3 -2 6 -13 5 -11 0 -14 -3 -6 -6z"/>
<path d="M2498 1393 c7 -3 16 -2 19 1 4 3 -2 6 -13 5 -11 0 -14 -3 -6 -6z"/>
<path d="M1888 1383 c7 -3 16 -2 19 1 4 3 -2 6 -13 5 -11 0 -14 -3 -6 -6z"/>
<path d="M2608 1373 c7 -3 16 -2 19 1 4 3 -2 6 -13 5 -11 0 -14 -3 -6 -6z"/>
<path d="M2490 1360 c0 -5 9 -10 21 -10 11 0 17 5 14 10 -3 6 -13 10 -21 10
-8 0 -14 -4 -14 -10z"/>
<path d="M1887 1313 c-4 -3 -7 -11 -7 -17 0 -6 5 -5 12 2 6 6 9 14 7 17 -3 3
-9 2 -12 -2z"/>
<path d="M2173 1270 c0 -30 2 -43 4 -27 2 15 2 39 0 55 -2 15 -4 2 -4 -28z"/>
<path d="M2462 1295 c0 -16 2 -22 5 -12 2 9 2 23 0 30 -3 6 -5 -1 -5 -18z"/>
<path d="M2460 1250 c0 -5 5 -10 11 -10 5 0 7 5 4 10 -3 6 -8 10 -11 10 -2 0
-4 -4 -4 -10z"/>
<path d="M3060 1236 c0 -2 14 -6 30 -8 17 -3 30 -1 30 4 0 4 -13 8 -30 8 -16
0 -30 -2 -30 -4z"/>
<path d="M1790 1211 c0 -6 5 -13 10 -16 6 -3 10 1 10 9 0 9 -4 16 -10 16 -5 0
-10 -4 -10 -9z"/>
<path d="M3071 1204 c0 -11 3 -14 6 -6 3 7 2 16 -1 19 -3 4 -6 -2 -5 -13z"/>
<path d="M2180 1200 c0 -5 5 -10 11 -10 5 0 7 5 4 10 -3 6 -8 10 -11 10 -2 0
-4 -4 -4 -10z"/>
<path d="M2225 1200 c-3 -5 -1 -10 4 -10 6 0 11 5 11 10 0 6 -2 10 -4 10 -3 0
-8 -4 -11 -10z"/>
<path d="M2480 1200 c0 -5 5 -10 10 -10 6 0 10 5 10 10 0 6 -4 10 -10 10 -5 0
-10 -4 -10 -10z"/>
<path d="M1975 1190 c-3 -5 -1 -10 4 -10 6 0 11 5 11 10 0 6 -2 10 -4 10 -3 0
-8 -4 -11 -10z"/>
<path d="M1811 1134 c0 -11 3 -14 6 -6 3 7 2 16 -1 19 -3 4 -6 -2 -5 -13z"/>
<path d="M2913 1073 c9 -2 23 -2 30 0 6 3 -1 5 -18 5 -16 0 -22 -2 -12 -5z"/>
<path d="M3301 964 c0 -11 3 -14 6 -6 3 7 2 16 -1 19 -3 4 -6 -2 -5 -13z"/>
<path d="M1851 954 c0 -11 3 -14 6 -6 3 7 2 16 -1 19 -3 4 -6 -2 -5 -13z"/>
<path d="M3090 949 c0 -5 5 -7 10 -4 6 3 10 8 10 11 0 2 -4 4 -10 4 -5 0 -10
-5 -10 -11z"/>
<path d="M1851 914 c0 -11 3 -14 6 -6 3 7 2 16 -1 19 -3 4 -6 -2 -5 -13z"/>
<path d="M1975 920 c3 -5 8 -10 11 -10 2 0 4 5 4 10 0 6 -5 10 -11 10 -5 0 -7
-4 -4 -10z"/>
<path d="M2023 913 c9 -2 23 -2 30 0 6 3 -1 5 -18 5 -16 0 -22 -2 -12 -5z"/>
<path d="M2051 884 c0 -11 3 -14 6 -6 3 7 2 16 -1 19 -3 4 -6 -2 -5 -13z"/>
<path d="M3030 884 c0 -8 5 -12 10 -9 6 3 10 10 10 16 0 5 -4 9 -10 9 -5 0
-10 -7 -10 -16z"/>
<path d="M2270 825 c0 -8 2 -15 4 -15 2 0 6 7 10 15 3 8 1 15 -4 15 -6 0 -10
-7 -10 -15z"/>
<path d="M2302 815 c0 -16 2 -22 5 -12 2 9 2 23 0 30 -3 6 -5 -1 -5 -18z"/>
<path d="M2000 800 c0 -5 5 -10 10 -10 6 0 10 5 10 10 0 6 -4 10 -10 10 -5 0
-10 -4 -10 -10z"/>
<path d="M2927 758 c8 -46 13 -48 13 -5 0 21 -4 37 -10 37 -5 0 -7 -14 -3 -32z"/>
<path d="M2300 760 c0 -5 5 -10 11 -10 5 0 7 5 4 10 -3 6 -8 10 -11 10 -2 0
-4 -4 -4 -10z"/>
<path d="M2670 750 c0 -5 5 -10 10 -10 6 0 10 5 10 10 0 6 -4 10 -10 10 -5 0
-10 -4 -10 -10z"/>
<path d="M2130 651 c0 -5 -10 -12 -22 -14 -17 -3 -14 -5 9 -6 25 -1 31 2 27
14 -7 17 -14 20 -14 6z"/>
<path d="M3480 730 c0 -5 7 -7 15 -4 8 4 15 8 15 10 0 2 -7 4 -15 4 -8 0 -15
-4 -15 -10z"/>
<path d="M3730 710 c0 -5 5 -10 10 -10 6 0 10 5 10 10 0 6 -4 10 -10 10 -5 0
-10 -4 -10 -10z"/>
<path d="M3738 673 c7 -3 16 -2 19 1 4 3 -2 6 -13 5 -11 0 -14 -3 -6 -6z"/>
<path d="M3458 633 c7 -3 16 -2 19 1 4 3 -2 6 -13 5 -11 0 -14 -3 -6 -6z"/>
<path d="M3251 484 c0 -11 3 -14 6 -6 3 7 2 16 -1 19 -3 4 -6 -2 -5 -13z"/>
<path d="M3712 480 c0 -14 2 -19 5 -12 2 6 2 18 0 25 -3 6 -5 1 -5 -13z"/>
<path d="M3270 480 c0 -5 5 -10 11 -10 5 0 7 5 4 10 -3 6 -8 10 -11 10 -2 0
-4 -4 -4 -10z"/>
<path d="M3240 430 c0 -5 5 -10 11 -10 5 0 7 5 4 10 -3 6 -8 10 -11 10 -2 0
-4 -4 -4 -10z"/>
<path d="M2118 403 c7 -3 16 -2 19 1 4 3 -2 6 -13 5 -11 0 -14 -3 -6 -6z"/>
<path d="M3188 403 c6 -2 18 -2 25 0 6 3 1 5 -13 5 -14 0 -19 -2 -12 -5z"/>
<path d="M2910 319 c0 -5 5 -7 10 -4 6 3 10 8 10 11 0 2 -4 4 -10 4 -5 0 -10
-5 -10 -11z"/>
<path d="M2941 314 c0 -11 3 -14 6 -6 3 7 2 16 -1 19 -3 4 -6 -2 -5 -13z"/>
<path d="M3085 310 c4 -6 11 -8 16 -5 14 9 11 15 -7 15 -8 0 -12 -5 -9 -10z"/>
<path d="M2278 263 c7 -3 16 -2 19 1 4 3 -2 6 -13 5 -11 0 -14 -3 -6 -6z"/>
<path d="M2305 220 c4 -6 11 -8 16 -5 14 9 11 15 -7 15 -8 0 -12 -5 -9 -10z"/>
<path d="M3088 43 c7 -3 16 -2 19 1 4 3 -2 6 -13 5 -11 0 -14 -3 -6 -6z"/>
<path d="M2085 10 c-3 -5 1 -10 10 -10 9 0 13 5 10 10 -3 6 -8 10 -10 10 -2 0
-7 -4 -10 -10z"/>
</g>
</svg>
