<svg height='100px' width='100px'  fill="#000000" xmlns="http://www.w3.org/2000/svg" xmlns:xlink="http://www.w3.org/1999/xlink" version="1.1" x="0px" y="0px" viewBox="0 0 100 100" enable-background="new 0 0 100 100" xml:space="preserve"><path d="M79.2,42.7C79.2,42.7,79.2,42.6,79.2,42.7c0-0.1,0-0.2,0-0.3c-0.2-1.1-0.7-2.5-2-4.1l-2.8-2.7V16.8c0-1.4-1.1-2.5-2.5-2.5  h-6.6c-1.4,0-2.5,1.1-2.5,2.5v7.7l-8-7.6c-0.7-0.7-2.7-2.2-5.2-2.2c-1.9,0-3.8,0.8-5.5,2.5L22.9,37.8c-1.8,1.7-2.3,3.4-2.5,4.6  c0,0.1-0.1,0.2-0.1,0.3c0,0,0,0.1,0,0.1c0,0.1,0,0.1,0,0.2v41.4c0,1.3,1,2.3,2.3,2.3H40c1.3,0,2.3-1,2.3-2.3v-6.9c0-0.1,0-0.1,0-0.2  V62.1h15.1v22.2c0,1.3,1,2.3,2.3,2.3h17.2c1.3,0,2.3-1,2.3-2.3L79.2,42.7C79.2,42.7,79.2,42.7,79.2,42.7z M63.9,16.8  c0-0.7,0.6-1.3,1.3-1.3h6.6c0.7,0,1.3,0.6,1.3,1.3v17.6l-9.2-8.8V16.8z M23.7,38.7l21.2-20.5c1.5-1.4,3-2.1,4.6-2.1  c2.1,0,3.8,1.3,4.4,1.8l9,8.6c0,0,0,0,0,0l10.4,9.9c0,0,0,0,0,0l3,2.8c1,1.1,1.4,2.1,1.6,2.9H21.7C21.9,41.1,22.5,39.9,23.7,38.7z   M76.9,85.5H59.7c-0.6,0-1.1-0.5-1.1-1.1V61.5c0-0.3-0.3-0.6-0.6-0.6H41.7c-0.3,0-0.6,0.3-0.6,0.6v15.5c0,0.1,0,0.1,0,0.2v7.1  c0,0.6-0.5,1.1-1.1,1.1H22.6c-0.6,0-1.1-0.5-1.1-1.1l0-41.1H78v41.1C78,85,77.5,85.5,76.9,85.5z"></path></svg>