<svg xmlns="http://www.w3.org/2000/svg" viewBox="0 0 100 100" ><g transform="matrix(0.7,-0.7,0.7,0.7,-20.8,50)">
        <path d="M 50.8 15.3 c -3.6 0 -6.5 2.9 -6.5 6.5 S 47.2 28.3 50.8 28.3 s 6.5 -2.9 6.5 -6.5 S 54.4 15.3 50.8 15.3 z M 50.8 26.3 c -2.5 0 -4.5 -2 -4.5 -4.5 S 48.3 17.3 50.8 17.3 s 4.5 2 4.5 4.5 S 53.3 26.3 50.8 26.3 z"/>
        <path transform="matrix(1,0,0,1,0.1,0.1)" d="M 69.8 12.5 C 68.2 9.7 65.1 8 61.9 8 H 39.7 c -3.2 0 -6.3 1.7 -8 4.5 l -4.1 6.8 c -0.9 1.4 -1.3 3.1 -1.3 4.8 V 87 c 0 0.6 0.4 1 1 1 h 46.9 c 0.6 0 1 -0.4 1 -1 V 24.1 c 0 -1.7 -0.5 -3.3 -1.3 -4.8 L 69.8 12.5 z M 73.2 86 H 28.4 V 24.1 c 0 -1.3 0.4 -2.6 1 -3.7 l 4.1 -6.8 C 34.8 11.4 37.2 10 39.7 10 h 22.1 C 64.4 10 66.8 11.4 68.1 13.5 l 4.1 6.8 c 0.7 1.1 1 2.4 1 3.7 V 86 z"/>
    </g>
</svg>