<svg xmlns="http://www.w3.org/2000/svg" viewBox="0 0 100 100"><g><path d="M50.35,47.646c-11.668,0-21.16-9.491-21.16-21.159c0-11.668,9.492-21.16,21.16-21.16   c11.666,0,21.156,9.492,21.156,21.16C71.506,38.155,62.016,47.646,50.35,47.646z M50.35,6.994   c-10.747,0-19.493,8.743-19.493,19.493c0,10.747,8.746,19.492,19.493,19.492c10.748,0,19.489-8.745,19.489-19.492   C69.839,15.737,61.098,6.994,50.35,6.994z"/></g><g><path d="M85.737,94.648c-0.459,0-0.834-0.371-0.834-0.833c0-19.053-15.5-34.557-34.556-34.557   c-19.053,0-34.553,15.504-34.553,34.557c0,0.462-0.373,0.833-0.833,0.833c-0.46,0-0.833-0.371-0.833-0.833   c0-19.974,16.249-36.224,36.22-36.224c19.977,0,36.223,16.25,36.223,36.224C86.57,94.277,86.198,94.648,85.737,94.648z"/></g></svg>