<svg xmlns="http://www.w3.org/2000/svg" viewBox="0 0 100 100"><g><path d="M75.244,15.066c-2.59,0-5.027,1.012-6.857,2.843c-3.781,3.785-3.778,9.94,0.002,13.724    c1.831,1.833,4.266,2.843,6.857,2.843s5.026-1.01,6.861-2.843c3.781-3.785,3.781-9.943-0.002-13.724    C80.275,16.076,77.838,15.066,75.244,15.066z M78.766,28.252c-1.871,1.869-5.129,1.869-6.996,0c-1.929-1.931-1.931-5.069-0.002-7    c0.934-0.934,2.175-1.448,3.498-1.448c1.322,0,2.564,0.515,3.5,1.448C80.691,23.183,80.691,26.321,78.766,28.252z M94.632,41.027    l0.005-28.872c0-3.745-3.05-6.792-6.792-6.792L58.973,5.368l-1.237-0.004c-1.893,0-4.75,0-6.617,1.869L7.008,51.342    c-1.06,1.059-1.645,2.467-1.645,3.966s0.583,2.908,1.644,3.968l33.717,33.717c1.058,1.06,2.467,1.645,3.966,1.645    s2.908-0.585,3.968-1.645l44.106-44.111c1.893-1.886,1.88-4.604,1.869-7.227L94.632,41.027z M90.022,46.139L45.913,90.25    c-0.654,0.65-1.792,0.652-2.443,0L9.752,56.532c-0.328-0.327-0.507-0.762-0.507-1.225c0-0.462,0.18-0.894,0.507-1.221    L53.861,9.976c0.676-0.674,2.284-0.731,3.874-0.731l1.237,0.004l28.872-0.004c1.604,0,2.909,1.306,2.909,2.911l-0.005,28.872    l0.005,0.642C90.76,43.585,90.769,45.392,90.022,46.139z"/></g></svg>