<svg xmlns="http://www.w3.org/2000/svg" id="to-top" preserveAspectRatio="xMidYMid meet" version="1.0" viewBox="0 0 564 544"><g fill="currentColor" stroke="none"><path d="M1578 4380 c-45 -13 -94 -48 -123 -86 -33 -43 -44 -131 -25 -188 16 -50 66 -105 115 -127 38 -18 98 -19 1146 -19 811 0 1115 3 1140 12 85 28 130 84 145 180 12 74 -49 185 -121 219 -25 12 -212 14 -1140 16 -610 1 -1122 -2 -1137 -7z" transform="translate(0.000000,544.000000) scale(0.100000,-0.100000)"/><path d="M2634 3736 c-23 -7 -52 -20 -65 -29 -13 -9 -267 -260 -565 -557 -585 -582 -594 -593 -594 -692 0 -96 63 -184 153 -214 70 -23 126 -13 204 36 13 8 180 172 373 365 l350 350 0 -1036 c-1 -728 3 -1044 10 -1065 14 -36 65 -90 105 -111 37 -20 155 -19 193 1 38 20 78 65 96 108 14 32 16 162 16 1062 0 564 4 1026 8 1026 4 0 165 -158 357 -351 196 -196 368 -360 390 -372 53 -28 143 -28 203 0 103 49 149 187 98 294 -21 44 -1121 1147 -1168 1171 -47 24 -115 30 -164 14z" transform="translate(0.000000,544.000000) scale(0.100000,-0.100000)"/></g></svg>