<?xml version="1.0" encoding="UTF-8"?><svg xmlns="http://www.w3.org/2000/svg" viewBox="0 0 16 16"><path d="M15.5 3.755a6.412 6.412 0 0 1-1.771.486 3.063 3.063 0 0 0 1.353-1.7 6.163 6.163 0 0 1-1.95.745 3.074 3.074 0 0 0-5.321 2.103c0 .244.02.478.071.701a8.701 8.701 0 0 1-6.338-3.217c-.265.46-.421.987-.421 1.554 0 1.065.549 2.009 1.366 2.556a3.04 3.04 0 0 1-1.388-.379v.033a3.087 3.087 0 0 0 2.464 3.021c-.251.07-.525.103-.808.103-.197 0-.395-.011-.582-.053a3.107 3.107 0 0 0 2.873 2.143 6.174 6.174 0 0 1-3.813 1.312c-.252 0-.494-.011-.736-.042a8.662 8.662 0 0 0 4.718 1.38c5.659 0 8.752-4.688 8.752-8.751a8.53 8.53 0 0 0-.011-.397A6.152 6.152 0 0 0 15.5 3.755z" fill="none" stroke="#000" stroke-linecap="round" stroke-linejoin="round" stroke-miterlimit="10"/></svg>