<svg xmlns="http://www.w3.org/2000/svg" xmlns:xlink="http://www.w3.org/1999/xlink" width="2560" height="480" preserveAspectRatio="xMidYMid meet"><g id="Symbol"><g fill="#879dab" stroke="none"><path d="M2938 6380 c-551 -53 -1031 -220 -1478 -514 -306 -201 -588 -470 -810 -771 -276 -374 -475 -850 -559 -1336 -64 -371 -53 -836 29 -1211 155 -712 552 -1347 1130 -1810 450 -360 1021 -589 1640 -659 58 -6 202 -12 320 -12 282 0 503 26 756 87 902 220 1680 841 2079 1661 303 622 402 1333 279 2005 -90 496 -313 984 -634 1390 -111 140 -378 404 -519 513 -456 352 -957 560 -1549 643 -126 17 -558 26 -684 14z m687 -220 c77 -11 189 -32 250 -46 127 -29 345 -94 345 -103 0 -4 -341 -188 -757 -409 l-757 -403 -41 22 c-22 13 -58 26 -79 29 l-40 5 -148 370 c-82 204 -150 377 -153 386 -10 29 325 119 570 153 169 24 174 24 430 21 183 -3 273 -8 380 -25z m-1292 -546 l157 -387 -24 -28 c-13 -16 -30 -44 -36 -64 -6 -19 -17 -35 -23 -35 -7 -1 -382 -54 -834 -119 -453 -64 -823 -115 -823 -111 0 3 43 62 95 132 269 358 584 630 980 844 90 49 321 153 341 154 6 0 81 -174 167 -386z m2026 347 l37 -20 129 -440 128 -440 -35 -39 c-20 -22 -37 -44 -39 -50 -3 -8 -290 13 -929 66 -775 65 -925 80 -928 92 -2 11 223 134 785 432 433 228 794 416 801 417 7 0 30 -8 51 -18z m204 -92 c420 -211 850 -600 1137 -1027 34 -51 60 -95 57 -98 -4 -4 -805 157 -859 172 -10 3 -18 12 -18 21 0 58 -78 133 -137 133 -18 0 -33 2 -33 5 0 3 -52 184 -116 403 -63 218 -117 405 -120 415 -3 9 -3 17 1 17 3 0 42 -19 88 -41z m-913 -894 c494 -41 904 -75 912 -75 7 -1 24 -23 36 -51 l24 -50 -169 -269 -168 -270 -44 0 c-24 0 -63 -9 -86 -21 l-42 -21 -679 402 c-373 222 -688 409 -699 416 -18 13 -18 14 -1 14 10 0 422 -34 916 -75z m-1175 18 l48 -48 -31 -225 c-18 -124 -60 -417 -94 -652 l-62 -428 -44 0 c-24 0 -51 -4 -61 -10 -16 -8 -146 87 -777 566 -418 317 -761 578 -763 580 -3 3 0 9 5 14 8 8 1633 247 1700 249 25 1 42 -9 79 -46z m915 -414 l690 -411 0 -38 0 -37 -147 -46 c-82 -26 -453 -148 -825 -271 l-676 -223 -22 30 -22 29 98 669 c82 557 101 669 114 669 8 0 31 9 50 19 19 11 38 20 43 20 4 1 318 -184 697 -410z m1959 175 c251 -53 457 -97 457 -98 9 -9 123 -247 153 -320 113 -272 189 -599 209 -901 l9 -130 -231 -273 c-224 -265 -232 -273 -264 -270 l-34 3 -418 1013 -419 1013 26 30 c15 16 33 29 41 29 8 0 220 -43 471 -96z m-593 2 c6 -5 804 -1949 802 -1952 -2 -2 -274 272 -605 609 l-600 612 13 32 c20 46 17 82 -9 128 l-23 41 170 271 171 272 40 -6 c22 -3 41 -6 41 -7z m-3341 -611 c402 -307 733 -561 737 -564 31 -26 -38 -31 -947 -65 -516 -19 -941 -33 -944 -30 -2 2 6 77 18 165 49 346 162 693 324 986 44 82 52 91 66 79 9 -7 345 -264 746 -571z m2710 -142 c17 -16 39 -32 48 -38 15 -9 13 -64 -23 -695 -22 -377 -40 -686 -40 -687 0 -2 -8 -3 -19 -3 -10 0 -30 -9 -45 -21 l-27 -21 -342 200 c-188 110 -542 317 -787 460 -245 144 -445 266 -445 273 0 8 312 116 820 285 451 150 822 272 824 273 2 1 18 -11 36 -26z m590 -425 c220 -222 500 -505 623 -629 l223 -225 -17 -31 -18 -30 -585 -82 c-322 -45 -602 -85 -621 -88 -31 -4 -37 -1 -53 27 -11 17 -34 39 -53 47 -19 9 -34 21 -34 27 -1 6 16 316 37 688 l37 678 26 9 c14 5 27 10 30 10 3 1 185 -180 405 -401z m-2587 -114 c-2 -9 -224 -178 -494 -375 l-492 -359 -38 16 c-26 11 -53 14 -84 10 -25 -3 -55 -7 -67 -8 -16 -2 -106 76 -362 316 -204 192 -341 327 -341 338 0 16 10 18 83 19 45 0 431 13 857 28 984 36 942 35 938 15z m59 -88 l22 -23 -104 -467 c-58 -256 -105 -468 -105 -470 0 -2 -14 -6 -32 -10 -17 -3 -47 -18 -65 -32 l-34 -26 -339 122 -338 122 -7 45 c-5 37 -3 47 12 58 10 7 229 169 488 359 258 190 472 346 475 346 3 0 15 -11 27 -24z m1013 -430 c421 -245 769 -452 775 -460 5 -8 7 -18 3 -21 -3 -4 -417 -41 -920 -84 l-913 -77 -16 26 c-9 15 -29 36 -45 47 l-28 21 104 465 105 465 43 7 c27 4 55 17 75 35 18 16 37 28 42 26 6 -2 354 -204 775 -450z m-2307 -276 c-7 -71 -4 -98 10 -126 l15 -30 -206 -248 -206 -248 -27 59 c-140 314 -228 733 -229 1086 l0 138 323 -303 c270 -254 322 -307 320 -328z m5277 366 c-17 -270 -58 -489 -135 -721 -38 -117 -134 -350 -140 -343 -1 2 -35 117 -75 256 l-72 253 26 25 c51 52 58 134 15 189 -21 26 -21 26 -2 48 11 12 102 120 203 240 100 120 184 216 186 214 2 -2 -1 -74 -6 -161z m-642 -487 l21 -41 -456 -782 c-251 -429 -461 -787 -467 -794 -9 -9 -19 -10 -42 -2 l-29 10 -174 676 -174 675 35 37 c20 20 40 51 45 67 l10 30 584 82 c321 44 594 82 605 82 16 1 27 -10 42 -40z m-4015 -145 c301 -109 327 -120 327 -142 0 -12 7 -39 15 -58 l15 -36 -411 -469 c-226 -259 -413 -468 -415 -466 -2 2 1 219 6 483 5 263 10 538 10 610 l0 132 29 12 c16 6 39 23 52 36 13 14 28 23 34 21 5 -2 157 -57 338 -123z m-517 -413 c-3 -262 -9 -527 -12 -589 -8 -134 -2 -135 -120 20 -93 121 -192 278 -272 428 l-61 115 215 257 c181 216 218 255 235 251 l22 -6 -7 -476z m4695 460 c3 -3 43 -133 88 -289 l82 -282 -62 -108 c-75 -130 -175 -278 -265 -392 -140 -176 -514 -528 -595 -558 -13 -5 -72 -13 -130 -17 l-105 -7 -16 40 -16 40 462 796 461 796 45 -6 c25 -4 48 -9 51 -13z m-1736 -69 c-6 -5 -361 -192 -790 -417 -429 -224 -806 -422 -838 -439 -52 -28 -59 -29 -70 -15 -17 22 -78 59 -99 59 -19 0 -16 -14 -68 300 -29 169 -38 246 -30 248 27 9 62 50 74 87 11 32 19 41 43 44 67 8 1683 139 1733 140 30 0 50 -3 45 -7z m90 -62 c10 -11 38 -26 62 -31 38 -10 44 -16 52 -48 90 -346 333 -1280 337 -1292 3 -11 -7 -23 -29 -36 -19 -11 -42 -38 -53 -60 l-19 -40 -1050 297 c-859 244 -1050 301 -1050 315 0 12 239 141 860 465 473 247 863 449 866 449 3 1 14 -8 24 -19z m-2076 -210 c13 0 21 -9 25 -27 10 -47 86 -497 86 -508 0 -5 -13 -19 -29 -29 -35 -24 -57 -59 -66 -108 -4 -22 -14 -39 -24 -42 -143 -41 -861 -236 -870 -236 -7 0 -11 5 -9 11 2 6 190 224 418 484 349 399 416 472 431 464 10 -5 27 -9 38 -9z m1376 -1065 c741 -208 1053 -300 1060 -312 6 -9 24 -32 41 -52 l31 -35 -30 -68 c-34 -77 -25 -71 -205 -139 -310 -116 -653 -180 -984 -183 -97 0 -178 1 -181 4 -89 106 -817 1053 -817 1063 0 18 9 27 23 21 7 -2 485 -137 1062 -299z m-1319 264 c31 -35 81 -51 134 -44 l46 6 380 -487 c208 -268 385 -496 392 -506 13 -17 10 -18 -45 -12 -640 65 -1267 346 -1732 776 l-61 57 42 12 c271 74 805 218 814 218 6 1 19 -9 30 -20z m2814 -563 c0 -5 -223 -138 -278 -165 -24 -13 -46 -20 -49 -18 -2 3 3 19 11 36 12 22 27 33 59 42 27 7 56 26 81 52 35 37 44 41 105 47 36 4 67 8 69 9 1 0 2 -1 2 -3z" transform="translate(0.000000,0.00) scale(0.075,0.075)"/></g></g><g id="text" stroke="none" transform="translate(500,425) scale(0.100000,-0.100000)"><g id="The minimum viable" fill="#879dab"><path d="M4425 3468 c-8 -36 -135 -818 -135 -834 0 -9 10 -14 29 -14 22 0 30 6 34 23 3 12 27 168 53 347 26 179 50 328 53 332 3 4 67 -142 141 -323 74 -182 141 -333 148 -336 8 -3 19 1 26 8 11 12 228 469 299 629 l20 45 51 -360 51 -360 33 -3 c17 -2 32 1 32 5 0 12 -119 803 -126 836 -14 68 -36 34 -203 -323 -91 -193 -168 -347 -172 -343 -4 4 -71 162 -150 351 -111 263 -148 342 -161 342 -10 0 -20 -10 -23 -22z"/><path d="M6520 3055 l0 -435 30 0 30 0 2 362 3 361 318 -366 c175 -202 325 -367 333 -367 12 0 14 63 14 435 l0 435 -30 0 -30 0 -2 -365 -3 -365 -320 370 c-176 203 -326 370 -332 370 -10 0 -13 -94 -13 -435z"/><path d="M8645 3478 c-2 -7 -35 -202 -73 -433 l-68 -420 29 -3 c16 -2 30 -2 32 0 2 2 28 162 57 356 32 213 56 348 61 340 5 -7 68 -157 141 -333 108 -263 136 -320 151 -320 16 0 50 66 175 333 109 234 157 327 162 315 4 -10 28 -170 54 -355 l47 -338 34 0 c32 0 34 2 29 28 -6 28 -126 827 -126 837 0 3 -8 5 -19 5 -14 0 -53 -74 -182 -350 -90 -192 -166 -350 -169 -350 -3 0 -70 157 -150 348 -104 246 -151 348 -163 350 -9 2 -19 -2 -22 -10z"/><path d="M11316 3078 c-37 -227 -70 -423 -73 -435 -5 -20 -1 -23 29 -23 l33 0 55 361 c34 230 57 355 62 343 4 -11 66 -160 138 -333 71 -173 133 -318 139 -324 5 -5 16 -7 23 -4 7 3 83 156 168 340 85 184 156 332 157 329 3 -8 103 -695 103 -705 0 -4 16 -7 36 -7 29 0 34 3 30 18 -3 9 -32 202 -66 427 -34 226 -65 414 -70 419 -5 5 -15 6 -22 3 -7 -2 -85 -159 -172 -346 -88 -188 -162 -344 -166 -346 -4 -2 -72 152 -152 343 -116 276 -150 348 -165 350 -19 3 -24 -24 -87 -410z"/><path d="M15417 3093 c-92 -219 -173 -415 -182 -435 l-15 -38 34 0 33 0 63 150 63 150 186 0 187 0 61 -147 61 -148 36 -3 c20 -2 36 -1 36 1 0 2 -79 193 -176 423 -97 230 -178 425 -181 432 -3 6 -13 12 -23 12 -13 0 -54 -89 -183 -397z m269 69 c41 -97 74 -180 74 -184 0 -5 -72 -8 -160 -8 -88 0 -160 4 -160 9 0 4 34 90 75 190 41 100 75 187 75 194 1 20 19 -17 96 -201z"/><path d="M160 3450 l0 -30 145 0 145 0 0 -400 0 -400 30 0 30 0 0 400 0 400 145 0 145 0 0 30 0 30 -320 0 -320 0 0 -30z"/><path d="M1310 3050 l0 -430 30 0 30 0 0 215 0 215 290 0 290 0 0 -215 0 -215 30 0 30 0 0 430 0 430 -30 0 -30 0 -2 -187 -3 -188 -287 -3 -288 -2 0 190 0 190 -30 0 -30 0 0 -430z"/><path d="M2650 3050 l0 -430 205 0 205 0 0 30 0 30 -175 0 -175 0 0 190 0 189 153 3 152 3 0 25 0 25 -152 3 -153 3 0 149 0 150 170 0 170 0 0 30 0 30 -200 0 -200 0 0 -430z"/><path d="M5820 3050 l0 -430 30 0 30 0 0 430 0 430 -30 0 -30 0 0 -430z"/><path d="M7890 3050 l0 -430 30 0 30 0 0 430 0 430 -30 0 -30 0 0 -430z"/><path d="M10020 3223 c0 -372 16 -449 110 -537 59 -55 124 -76 234 -76 145 1 234 49 287 155 39 80 49 171 49 473 l0 242 -35 0 -35 0 0 -293 c0 -231 -3 -304 -15 -344 -36 -121 -118 -177 -260 -177 -121 1 -191 40 -236 131 -23 47 -24 57 -29 363 l-5 315 -32 3 -33 3 0 -258z"/><path d="M13390 3476 c0 -2 83 -197 183 -433 143 -333 188 -429 203 -431 16 -2 46 61 202 425 100 235 182 432 182 436 0 5 -14 7 -32 5 l-32 -3 -157 -373 c-86 -205 -159 -375 -162 -378 -2 -3 -7 5 -10 18 -4 13 -74 183 -156 378 l-150 355 -36 3 c-19 2 -35 1 -35 -2z"/><path d="M14660 3050 l0 -430 30 0 30 0 0 430 0 430 -30 0 -30 0 0 -430z"/><path d="M16480 3052 l0 -429 123 -7 c205 -11 305 21 354 113 28 54 32 155 7 204 -23 45 -82 105 -127 128 l-38 20 45 50 c54 60 70 103 64 178 -5 72 -32 111 -96 143 -41 20 -64 23 -189 26 l-143 3 0 -429z m287 358 c24 -10 52 -33 63 -52 41 -65 7 -171 -74 -233 -35 -26 -38 -27 -126 -20 l-90 7 0 159 0 159 93 0 c69 0 103 -5 134 -20z m-27 -376 c106 -31 170 -97 177 -182 5 -60 -19 -106 -76 -147 -42 -30 -45 -30 -169 -30 l-127 0 -3 188 -2 187 73 0 c40 0 97 -7 127 -16z"/><path d="M17560 3050 l0 -430 225 0 225 0 0 30 0 30 -195 0 -195 0 0 400 0 400 -30 0 -30 0 0 -430z"/><path d="M18520 3050 l0 -430 205 0 205 0 0 30 0 30 -175 0 -175 0 0 190 0 190 150 0 150 0 0 30 0 30 -150 0 -150 0 0 150 0 150 168 2 167 3 3 28 3 27 -200 0 -201 0 0 -430z"/></g><g id="model" fill="#326273"><path d="M6030 2108 c-229 -18 -392 -85 -535 -220 -205 -191 -305 -445 -305 -775 0 -262 56 -474 170 -644 68 -101 193 -217 286 -265 167 -88 272 -108 514 -101 190 5 283 27 425 100 117 60 262 208 327 332 81 158 116 303 125 520 24 604 -300 1015 -832 1053 -49 4 -128 4 -175 0z m243 -214 c115 -26 192 -69 277 -154 84 -84 130 -156 166 -258 119 -344 62 -776 -131 -990 -63 -69 -143 -127 -220 -159 -146 -61 -390 -56 -521 10 -120 61 -230 170 -289 288 -121 237 -126 674 -12 912 62 130 162 238 280 303 108 59 307 80 450 48z"/><path d="M531 2086 c-59 -20 -96 -57 -115 -120 -15 -46 -16 -139 -14 -918 3 -830 4 -867 22 -887 33 -36 81 -46 132 -26 24 9 49 25 54 35 6 12 10 317 10 836 0 708 2 816 14 804 8 -8 58 -112 112 -230 410 -908 599 -1320 620 -1348 33 -42 73 -62 126 -62 49 0 98 26 124 64 14 23 149 316 590 1288 l139 308 5 -818 c4 -615 8 -822 17 -838 12 -22 70 -54 95 -54 7 0 32 9 55 19 35 16 44 26 53 60 7 28 10 300 8 893 l-3 853 -22 41 c-59 110 -192 147 -292 81 -46 -31 -79 -93 -274 -527 -360 -800 -481 -1066 -492 -1078 -9 -10 -77 133 -320 680 -169 381 -326 729 -349 773 -45 88 -85 139 -126 160 -42 22 -119 26 -169 11z"/><path d="M9697 2082 c-67 -45 -62 26 -64 -967 -2 -703 0 -905 10 -924 6 -13 25 -34 40 -45 28 -20 39 -21 375 -21 322 0 355 2 460 23 226 46 389 127 517 257 155 158 232 365 242 655 9 228 -23 404 -99 555 -125 248 -315 385 -628 452 -107 24 -139 26 -470 30 -337 4 -356 3 -383 -15z m704 -197 c187 -28 293 -77 406 -190 66 -66 90 -98 123 -166 77 -162 104 -349 81 -564 -33 -298 -168 -502 -394 -592 -118 -46 -177 -54 -464 -60 l-273 -6 0 797 0 796 213 0 c133 0 247 -5 308 -15z"/><path d="M13971 2083 c-18 -9 -42 -31 -52 -47 -18 -30 -19 -70 -19 -925 0 -879 0 -894 20 -926 42 -67 27 -66 650 -63 l562 3 24 28 c35 41 34 109 -2 142 l-27 25 -493 0 -494 0 0 360 0 359 449 3 c437 3 450 4 477 24 37 27 47 67 29 111 -26 62 -33 63 -520 63 l-435 0 0 325 0 325 458 0 c415 0 460 2 492 18 65 32 79 101 31 154 l-29 33 -544 2 c-491 3 -546 1 -577 -14z"/><path d="M17875 2085 c-55 -20 -72 -45 -80 -118 -3 -34 -5 -442 -3 -907 3 -817 4 -846 22 -877 38 -63 41 -63 612 -63 577 0 572 -1 600 66 17 41 13 70 -15 105 l-19 24 -474 5 -473 5 -5 850 c-6 953 -1 893 -77 914 -46 13 -39 13 -88 -4z"/></g></g></svg>